<mxfile host="app.diagrams.net" agent="Mozilla/5.0 (Windows NT 10.0; Win64; x64) AppleWebKit/537.36 (KHTML, like Gecko) Chrome/131.0.0.0 Safari/537.36" version="25.0.0">
  <diagram name="Page-1" id="efa7a0a1-bf9b-a30e-e6df-94a7791c09e9">
    <mxGraphModel dx="395" dy="817" grid="0" gridSize="10" guides="1" tooltips="1" connect="1" arrows="1" fold="1" page="1" pageScale="1" pageWidth="826" pageHeight="1169" background="none" math="0" shadow="0">
      <root>
        <mxCell id="0" />
        <mxCell id="1" parent="0" />
        <mxCell id="22" value="&lt;p style=&quot;text-decoration-line: underline; margin: 4px 0px 0px; text-align: center;&quot;&gt;&lt;b&gt;User&lt;/b&gt;&lt;/p&gt;&lt;hr&gt;&lt;p style=&quot;margin: 0px 0px 0px 8px;&quot;&gt;userId&lt;/p&gt;&lt;p style=&quot;margin: 0px 0px 0px 8px;&quot;&gt;userPass&lt;/p&gt;&lt;p style=&quot;margin: 0px 0px 0px 8px;&quot;&gt;username&lt;/p&gt;&lt;p style=&quot;margin: 0px 0px 0px 8px;&quot;&gt;userPhone&lt;/p&gt;&lt;p style=&quot;margin: 0px 0px 0px 8px;&quot;&gt;userAddr&lt;/p&gt;&lt;p style=&quot;margin: 0px 0px 0px 8px;&quot;&gt;userAccount&lt;/p&gt;&lt;p style=&quot;margin: 0px 0px 0px 8px;&quot;&gt;userSex&lt;/p&gt;&lt;p style=&quot;margin: 0px 0px 0px 8px;&quot;&gt;userAuth&lt;/p&gt;&lt;p style=&quot;margin: 0px 0px 0px 8px;&quot;&gt;userBirth&lt;/p&gt;" style="verticalAlign=top;align=left;overflow=fill;fontSize=12;fontFamily=Helvetica;html=1;strokeColor=#003366;shadow=1;fillColor=#D4E1F5;fontColor=#003366" parent="1" vertex="1">
          <mxGeometry x="879.9999999999999" y="430" width="160.0000000000001" height="180" as="geometry" />
        </mxCell>
        <mxCell id="26" value="&lt;p style=&quot;margin: 0px; margin-top: 4px; text-align: center; text-decoration: underline;&quot;&gt;&lt;b&gt;SHOPPINGBASKET&lt;/b&gt;&lt;/p&gt;&lt;hr&gt;&lt;p style=&quot;margin: 0px; margin-left: 8px;&quot;&gt;userNum(FK)&lt;/p&gt;&lt;p style=&quot;margin: 0px; margin-left: 8px;&quot;&gt;productNum(FK)&lt;/p&gt;&lt;p style=&quot;margin: 0px; margin-left: 8px;&quot;&gt;productCount&lt;/p&gt;" style="verticalAlign=top;align=left;overflow=fill;fontSize=12;fontFamily=Helvetica;html=1;strokeColor=#003366;shadow=1;fillColor=#D4E1F5;fontColor=#003366" parent="1" vertex="1">
          <mxGeometry x="1170" y="680" width="160" height="80" as="geometry" />
        </mxCell>
        <mxCell id="27" value="&lt;p style=&quot;margin: 0px; margin-top: 4px; text-align: center; text-decoration: underline;&quot;&gt;&lt;b&gt;PRODUCT&lt;/b&gt;&lt;/p&gt;&lt;hr&gt;&lt;p style=&quot;margin: 0px; margin-left: 8px;&quot;&gt;productNum&lt;/p&gt;&lt;p style=&quot;margin: 0px; margin-left: 8px;&quot;&gt;productImage&lt;/p&gt;&lt;p style=&quot;margin: 0px; margin-left: 8px;&quot;&gt;productCategory&lt;/p&gt;&lt;p style=&quot;margin: 0px; margin-left: 8px;&quot;&gt;productPrice&lt;/p&gt;&lt;p style=&quot;margin: 0px; margin-left: 8px;&quot;&gt;productDetail&lt;/p&gt;&lt;p style=&quot;margin: 0px; margin-left: 8px;&quot;&gt;productText&lt;/p&gt;&lt;p style=&quot;margin: 0px; margin-left: 8px;&quot;&gt;userNum(FK)&lt;/p&gt;" style="verticalAlign=top;align=left;overflow=fill;fontSize=12;fontFamily=Helvetica;html=1;strokeColor=#003366;shadow=1;fillColor=#D4E1F5;fontColor=#003366" parent="1" vertex="1">
          <mxGeometry x="1170" y="440" width="160" height="160" as="geometry" />
        </mxCell>
        <mxCell id="f3HKD26u0Q34a1ET_e4P-116" value="" style="edgeStyle=none;curved=1;rounded=0;orthogonalLoop=1;jettySize=auto;html=1;fontSize=12;startSize=14;endSize=12;endArrow=ERzeroToMany;endFill=0;startArrow=ERone;startFill=0;" edge="1" parent="1" source="35" target="f3HKD26u0Q34a1ET_e4P-114">
          <mxGeometry relative="1" as="geometry" />
        </mxCell>
        <mxCell id="35" value="&lt;p style=&quot;margin: 0px; margin-top: 4px; text-align: center; text-decoration: underline;&quot;&gt;&lt;b&gt;AITRY&lt;/b&gt;&lt;/p&gt;&lt;hr&gt;&lt;p style=&quot;margin: 0px; margin-left: 8px;&quot;&gt;AITryNum&lt;/p&gt;&lt;p style=&quot;margin: 0px; margin-left: 8px;&quot;&gt;userNum(FK)&lt;/p&gt;&lt;p style=&quot;margin: 0px; margin-left: 8px;&quot;&gt;AIModelImg&lt;/p&gt;&lt;p style=&quot;margin: 0px; margin-left: 8px;&quot;&gt;TopClothes&lt;/p&gt;&lt;p style=&quot;margin: 0px; margin-left: 8px;&quot;&gt;BotClothes&lt;/p&gt;&lt;p style=&quot;margin: 0px; margin-left: 8px;&quot;&gt;ReplyNum&lt;/p&gt;" style="verticalAlign=top;align=left;overflow=fill;fontSize=12;fontFamily=Helvetica;html=1;strokeColor=#003366;shadow=1;fillColor=#D4E1F5;fontColor=#003366" parent="1" vertex="1">
          <mxGeometry x="1170" y="200" width="160" height="130" as="geometry" />
        </mxCell>
        <mxCell id="54" value="" style="endArrow=ERone;endSize=12;startArrow=ERzeroToMany;startSize=14;startFill=0;edgeStyle=orthogonalEdgeStyle;exitX=0;exitY=0.25;rounded=0;endFill=0;" parent="1" source="26" target="22" edge="1">
          <mxGeometry x="1209.36" y="170" as="geometry">
            <mxPoint x="1209.36" y="170" as="sourcePoint" />
            <mxPoint x="1369.36" y="170" as="targetPoint" />
          </mxGeometry>
        </mxCell>
        <mxCell id="57" value="" style="endArrow=ERzeroToMany;endSize=12;startArrow=ERone;startSize=14;startFill=0;edgeStyle=orthogonalEdgeStyle;endFill=0;" parent="1" source="27" target="26" edge="1">
          <mxGeometry x="1269.36" y="180" as="geometry">
            <mxPoint x="1269.36" y="180" as="sourcePoint" />
            <mxPoint x="1429.36" y="180" as="targetPoint" />
          </mxGeometry>
        </mxCell>
        <mxCell id="58" value="" style="resizable=0;align=left;verticalAlign=top;labelBackgroundColor=#ffffff;fontSize=10;strokeColor=#003366;shadow=1;fillColor=#D4E1F5;fontColor=#003366" parent="57" connectable="0" vertex="1">
          <mxGeometry x="-1" relative="1" as="geometry">
            <mxPoint x="10" as="offset" />
          </mxGeometry>
        </mxCell>
        <mxCell id="84" value="" style="endArrow=ERone;endSize=12;startArrow=ERzeroToMany;startSize=14;startFill=0;edgeStyle=orthogonalEdgeStyle;endFill=0;" parent="1" source="27" target="22" edge="1">
          <mxGeometry x="1389.36" y="130" as="geometry">
            <mxPoint x="1389.36" y="130" as="sourcePoint" />
            <mxPoint x="1549.36" y="130" as="targetPoint" />
          </mxGeometry>
        </mxCell>
        <mxCell id="85" value="" style="resizable=0;align=left;verticalAlign=top;labelBackgroundColor=#ffffff;fontSize=10;strokeColor=#003366;shadow=1;fillColor=#D4E1F5;fontColor=#003366" parent="84" connectable="0" vertex="1">
          <mxGeometry x="-1" relative="1" as="geometry">
            <mxPoint x="-30" as="offset" />
          </mxGeometry>
        </mxCell>
        <mxCell id="86" value="" style="resizable=0;align=right;verticalAlign=top;labelBackgroundColor=#ffffff;fontSize=10;strokeColor=#003366;shadow=1;fillColor=#D4E1F5;fontColor=#003366" parent="84" connectable="0" vertex="1">
          <mxGeometry x="1" relative="1" as="geometry">
            <mxPoint x="20" y="2.7284841053187846e-13" as="offset" />
          </mxGeometry>
        </mxCell>
        <mxCell id="f3HKD26u0Q34a1ET_e4P-114" value="&lt;p style=&quot;margin: 0px; margin-top: 4px; text-align: center; text-decoration: underline;&quot;&gt;&lt;b&gt;REPLY&lt;/b&gt;&lt;/p&gt;&lt;hr&gt;&lt;p style=&quot;margin: 0px; margin-left: 8px;&quot;&gt;ReplyNum&lt;/p&gt;&lt;p style=&quot;margin: 0px; margin-left: 8px;&quot;&gt;userNum(FK)&lt;/p&gt;&lt;p style=&quot;margin: 0px; margin-left: 8px;&quot;&gt;AITryNum(FK)&lt;/p&gt;&lt;p style=&quot;margin: 0px; margin-left: 8px;&quot;&gt;isGood&lt;/p&gt;&lt;p style=&quot;margin: 0px; margin-left: 8px;&quot;&gt;ReplyText&lt;/p&gt;" style="verticalAlign=top;align=left;overflow=fill;fontSize=12;fontFamily=Helvetica;html=1;strokeColor=#003366;shadow=1;fillColor=#D4E1F5;fontColor=#003366" vertex="1" parent="1">
          <mxGeometry x="1420" y="200" width="160" height="130" as="geometry" />
        </mxCell>
        <mxCell id="f3HKD26u0Q34a1ET_e4P-117" value="" style="endArrow=ERone;endSize=12;startArrow=ERzeroToMany;startSize=14;startFill=0;edgeStyle=orthogonalEdgeStyle;rounded=0;endFill=0;entryX=0.5;entryY=0;entryDx=0;entryDy=0;" edge="1" parent="1" source="35" target="22">
          <mxGeometry x="1209.36" y="170" as="geometry">
            <mxPoint x="1120" y="260" as="sourcePoint" />
            <mxPoint x="910" y="170" as="targetPoint" />
          </mxGeometry>
        </mxCell>
        <mxCell id="f3HKD26u0Q34a1ET_e4P-118" value="" style="endArrow=ERone;endSize=12;startArrow=ERzeroToMany;startSize=14;startFill=0;edgeStyle=orthogonalEdgeStyle;rounded=0;endFill=0;entryX=0.5;entryY=1;entryDx=0;entryDy=0;exitX=0.5;exitY=0;exitDx=0;exitDy=0;" edge="1" parent="1" source="27" target="35">
          <mxGeometry x="1209.36" y="170" as="geometry">
            <mxPoint x="1170" y="330" as="sourcePoint" />
            <mxPoint x="960" y="495" as="targetPoint" />
          </mxGeometry>
        </mxCell>
      </root>
    </mxGraphModel>
  </diagram>
</mxfile>
